<?xml version="1.0" encoding="utf-8"?>
<!-- Generator: Adobe Illustrator 21.1.0, SVG Export Plug-In . SVG Version: 6.00 Build 0)  -->
<svg version="1.1" id="Layer_1" xmlns="http://www.w3.org/2000/svg" xmlns:xlink="http://www.w3.org/1999/xlink" x="0px" y="0px"
	 viewBox="0 0 174.1 202.5" style="enable-background:new 0 0 174.1 202.5;" xml:space="preserve">
<style type="text/css">
	.st0{fill:#BE1E2D;}
</style>
<path class="st0" d="M0,100.9C5.6,94.6,11.4,88.4,16.9,82C39.4,55.9,61.8,29.8,84.3,3.6c0.9-1,1.6-2.1,2.7-3.6
	c29.3,34.1,58,67.5,87.1,101.3c-28.9,33.6-57.7,67.2-86.8,101.1c-7.1-8.2-13.8-16-20.5-23.8C45.6,154,24.4,129.4,3.2,104.8
	c-0.9-1.1-2.2-1.9-3.2-2.9C0,101.5,0,101.2,0,100.9z"/>
<path class="st0" d="M318.5,75.5c3.5-19.7,13.4-32.8,31.6-38.8c17.7-5.8,37.3,0.5,48.7,15.3c11.3,14.6,12.5,36.3,2.7,51.6
	c-1.2,1.9-2.8,3.8-4.4,5.4c-25.6,25.7-51.3,51.3-77,77c-0.5,0.5-1,0.9-1.6,1.5c-0.8-0.6-1.6-1.2-2.3-1.9
	c-24.9-24.8-49.8-49.6-74.5-74.6c-12.3-12.4-16.1-27.6-11.3-44.2c4.8-16.6,16.3-27.1,33.3-31.1c23.5-5.5,47.7,9.7,53.1,33.1
	C317.3,70.7,317.8,72.6,318.5,75.5z"/>
<path d="M274.6-160.6c-4.7-19-0.6-34.9,15.8-45.9c13.7-9.1,28.3-9,42.3-0.3c14.9,9.2,19.5,22.6,16.3,46.4
	c13.8-1.6,25.5,2.5,35.2,12.4c6.4,6.5,10.2,14.3,11.5,23.3c2.8,18.1-7.4,36.1-24.3,43.3c-19.2,8.2-36.5,2.1-54-19.9
	c5.1,21.7,10.7,41.5,33.3,51.9c-24.6,0-48,0-72.8,0c10.9-5.1,18.8-12,23.2-21.9c4.1-9.5,7.2-19.4,10.2-29.3
	c-17.2,21.6-35.5,28-55.3,18.7c-17.8-8.3-28.9-30.4-24.4-48.5C236.5-150.1,252.3-161.4,274.6-160.6z"/>
<path d="M95.5-97.4c4,20.9,9.7,40.6,32.5,51c-24.9,0-48.3,0-73.4,0c23.1-10.6,28.5-30.9,32.8-51.9c-0.9,1.4-1.7,2.7-2.6,4.1
	C72.6-75.1,47.6-69.5,28.6-81.3c-18.9-11.8-25.1-37-13.7-56.1c1-1.7,2.2-3.4,3.6-4.8c23.7-23.7,47.4-47.4,71.1-71
	c0.5-0.5,1-0.8,1.7-1.4c0.8,0.7,1.6,1.2,2.3,1.9c22.3,22.2,44.7,44.4,66.8,66.8c22.9,23.1,13.6,60.4-17,69.2
	c-16.8,4.8-34.7-1.6-44.8-16.2C97.5-94.4,96.5-95.9,95.5-97.4z"/>
</svg>
