<?xml version="1.0" encoding="utf-8"?>
<!-- Generator: Adobe Illustrator 21.1.0, SVG Export Plug-In . SVG Version: 6.00 Build 0)  -->
<svg version="1.1" id="Layer_1" xmlns="http://www.w3.org/2000/svg" xmlns:xlink="http://www.w3.org/1999/xlink" x="0px" y="0px"
	 viewBox="0 0 179.8 152.8" style="enable-background:new 0 0 179.8 152.8;" xml:space="preserve">
<style type="text/css">
	.st0{fill:#BE1E2D;}
</style>
<path class="st0" d="M-228.4,66.3c5.6-6.3,11.4-12.4,16.9-18.8c22.5-26.1,44.9-52.3,67.4-78.5c0.9-1,1.6-2.1,2.7-3.6
	c29.3,34.1,58,67.5,87.1,101.3c-28.9,33.6-57.7,67.2-86.8,101.1c-7.1-8.2-13.8-16-20.5-23.8c-21.2-24.6-42.3-49.3-63.5-73.9
	c-0.9-1.1-2.2-1.9-3.2-2.9C-228.4,67-228.4,66.7-228.4,66.3z"/>
<path class="st0" d="M90,41c3.5-19.7,13.4-32.8,31.6-38.8c17.7-5.8,37.3,0.5,48.7,15.3c11.3,14.6,12.5,36.3,2.7,51.6
	c-1.2,1.9-2.8,3.8-4.4,5.4c-25.6,25.7-51.3,51.3-77,77c-0.5,0.5-1,0.9-1.6,1.5c-0.8-0.6-1.6-1.2-2.3-1.9
	C62.9,126.1,38,101.4,13.3,76.4C1,64-2.8,48.9,2,32.3C6.9,15.6,18.3,5.1,35.3,1.2C58.8-4.3,83,10.8,88.4,34.3
	C88.9,36.2,89.3,38.1,90,41z"/>
<path d="M46.1-195.1c-4.7-19-0.6-34.9,15.8-45.9c13.7-9.1,28.3-9,42.3-0.3c14.9,9.2,19.5,22.6,16.3,46.4
	c13.8-1.6,25.5,2.5,35.2,12.4c6.4,6.5,10.2,14.3,11.5,23.3c2.8,18.1-7.4,36.1-24.3,43.3c-19.2,8.2-36.5,2.1-54-19.9
	c5.1,21.7,10.7,41.5,33.3,51.9c-24.6,0-48,0-72.8,0c10.9-5.1,18.8-12,23.2-21.9c4.1-9.5,7.2-19.4,10.2-29.3
	c-17.2,21.6-35.5,28-55.3,18.7C9.7-124.8-1.4-146.8,3.1-165C8-184.6,23.9-195.9,46.1-195.1z"/>
<path d="M-132.9-131.9c4,20.9,9.7,40.6,32.5,51c-24.9,0-48.3,0-73.4,0c23.1-10.6,28.5-30.9,32.8-51.9c-0.9,1.4-1.7,2.7-2.6,4.1
	c-12.2,18.9-37.2,24.6-56.2,12.8c-18.9-11.8-25.1-37-13.7-56.1c1-1.7,2.2-3.4,3.6-4.8c23.7-23.7,47.4-47.4,71.1-71
	c0.5-0.5,1-0.8,1.7-1.4c0.8,0.7,1.6,1.2,2.3,1.9c22.3,22.2,44.7,44.4,66.8,66.8c22.9,23.1,13.6,60.4-17,69.2
	c-16.8,4.8-34.7-1.6-44.8-16.2C-130.9-128.9-131.9-130.4-132.9-131.9z"/>
</svg>
