<?xml version="1.0" encoding="utf-8"?>
<!-- Generator: Adobe Illustrator 21.1.0, SVG Export Plug-In . SVG Version: 6.00 Build 0)  -->
<svg version="1.1" id="Layer_1" xmlns="http://www.w3.org/2000/svg" xmlns:xlink="http://www.w3.org/1999/xlink" x="0px" y="0px"
	 viewBox="0 0 1000 1000" style="enable-background:new 0 0 1000 1000;" xml:space="preserve">
<style type="text/css">
	.st0{fill:#8B8B8B;}
</style>
<g>
	<path class="st0" d="M500.4,170c182.5,0,330.4,147.9,330.4,330.4c0,182.6-148,330.5-330.6,330.4C317.8,830.7,170,682.7,170,500.4
		C170.1,317.8,318,170,500.4,170z M220.6,500.4c0.1,154.3,125.5,279.8,279.8,279.8c154.4,0.1,279.9-125.3,280-279.8
		c0.1-154.3-125.5-279.9-279.9-279.9C346.1,220.5,220.5,346.1,220.6,500.4z"/>
	<path class="st0" d="M602,677.9c0,8.6,0,17,0,25.6c-66,0-132,0-198.2,0c0-8.4,0-16.9,0-25.5c0.4-0.1,0.9-0.1,1.4-0.2
		c8.5-0.2,17.1-0.2,25.6-0.5c2.9-0.1,5.8-0.4,8.7-0.9c7.7-1.5,12.1-6.3,13.4-13.9c0.4-2.6,0.7-5.2,0.7-7.9c0-50.5,0-101,0-151.6
		c0-2.2-0.1-4.5-0.5-6.7c-1.4-7.8-6.8-11.9-13.9-14c-7.6-2.3-15.5-2.4-23.4-2.2c-4.8,0.1-9.6,0.3-14.4,0.5c-0.8,0-1.6,0-2.5,0
		c0-8.5,0-16.8,0-25.5c51.8-1.9,103.5-3.7,155.6-5.6c0,1.1,0,2,0,2.9c0,68.2,0,136.4,0,204.6c0,2.2,0.1,4.5,0.4,6.7
		c0.8,5.1,3.6,9,8.5,10.5c4.6,1.4,9.4,2.5,14.2,2.9c7.6,0.6,15.2,0.4,22.8,0.5C600.9,677.9,601.4,677.9,602,677.9z"/>
	<path class="st0" d="M437,354c0.1-31.5,25.7-57,57.1-57c31.5,0.1,57.2,25.8,57.1,57.3c-0.1,31.6-25.8,57-57.4,56.9
		C462.3,411.1,437,385.6,437,354z"/>
</g>
</svg>
