<?xml version="1.0" encoding="utf-8"?>
<!-- Generator: Adobe Illustrator 21.1.0, SVG Export Plug-In . SVG Version: 6.00 Build 0)  -->
<svg version="1.1" id="Layer_1" xmlns="http://www.w3.org/2000/svg" xmlns:xlink="http://www.w3.org/1999/xlink" x="0px" y="0px"
	 viewBox="0 0 163.9 168.3" style="enable-background:new 0 0 163.9 168.3;" xml:space="preserve">
<style type="text/css">
	.st0{fill:#BE1E2D;}
</style>
<path class="st0" d="M-9.2,315.5c5.6-6.3,11.4-12.4,16.9-18.8c22.5-26.1,44.9-52.3,67.4-78.5c0.9-1,1.6-2.1,2.7-3.6
	c29.3,34.1,58,67.5,87.1,101.3C136,349.6,107.2,383.1,78,417.1c-7.1-8.2-13.8-16-20.5-23.8C36.4,368.6,15.2,344-5.9,319.4
	c-0.9-1.1-2.2-1.9-3.2-2.9C-9.2,316.1-9.2,315.8-9.2,315.5z"/>
<path class="st0" d="M309.3,290.1c3.5-19.7,13.4-32.8,31.6-38.8c17.7-5.8,37.3,0.5,48.7,15.3c11.3,14.6,12.5,36.3,2.7,51.6
	c-1.2,1.9-2.8,3.8-4.4,5.4c-25.6,25.7-51.3,51.3-77,77c-0.5,0.5-1,0.9-1.6,1.5c-0.8-0.6-1.6-1.2-2.3-1.9
	c-24.9-24.8-49.8-49.6-74.5-74.6c-12.3-12.4-16.1-27.6-11.3-44.2c4.8-16.6,16.3-27.1,33.3-31.1c23.5-5.5,47.7,9.7,53.1,33.1
	C308.1,285.3,308.6,287.2,309.3,290.1z"/>
<path d="M265.4,54c-4.7-19-0.6-34.9,15.8-45.9c13.7-9.1,28.3-9,42.3-0.3c14.9,9.2,19.5,22.6,16.3,46.4c13.8-1.6,25.5,2.5,35.2,12.4
	c6.4,6.5,10.2,14.3,11.5,23.3c2.8,18.1-7.4,36.1-24.3,43.3c-19.2,8.2-36.5,2.1-54-19.9c5.1,21.7,10.7,41.5,33.3,51.9
	c-24.6,0-48,0-72.8,0c10.9-5.1,18.8-12,23.2-21.9c4.1-9.5,7.2-19.4,10.2-29.3c-17.2,21.6-35.5,28-55.3,18.7
	c-17.8-8.3-28.9-30.4-24.4-48.5C227.3,64.5,243.1,53.2,265.4,54z"/>
<path d="M86.4,117.2c4,20.9,9.7,40.6,32.5,51c-24.9,0-48.3,0-73.4,0c23.1-10.6,28.5-30.9,32.8-51.9c-0.9,1.4-1.7,2.7-2.6,4.1
	c-12.2,18.9-37.2,24.6-56.2,12.8C0.5,121.5-5.7,96.3,5.7,77.2c1-1.7,2.2-3.4,3.6-4.8C33,48.7,56.7,25,80.4,1.4
	c0.5-0.5,1-0.8,1.7-1.4c0.8,0.7,1.6,1.2,2.3,1.9c22.3,22.2,44.7,44.4,66.8,66.8c22.9,23.1,13.6,60.4-17,69.2
	c-16.8,4.8-34.7-1.6-44.8-16.2C88.3,120.2,87.3,118.7,86.4,117.2z"/>
</svg>
